<?xml version="1.0" encoding="UTF-8"?>
<!DOCTYPE svg PUBLIC "-//W3C//DTD SVG 1.1//EN" "http://www.w3.org/Graphics/SVG/1.1/DTD/svg11.dtd">
<svg xmlns="http://www.w3.org/2000/svg" version="1.1" width="418px" height="352px" style="shape-rendering:geometricPrecision; text-rendering:geometricPrecision; image-rendering:optimizeQuality; fill-rule:evenodd; clip-rule:evenodd" xmlns:xlink="http://www.w3.org/1999/xlink">
<g><path style="opacity:1" fill="#ef7525" d="M 311.5,183.5 C 303.459,190.51 295.459,197.51 287.5,204.5C 286.167,205.167 285.167,206.167 284.5,207.5C 278.908,206.772 275.908,209.105 275.5,214.5C 275.167,214.5 274.833,214.5 274.5,214.5C 273.542,214.047 272.708,213.381 272,212.5C 271.891,207.386 271.224,202.386 270,197.5C 266.005,193.336 262.505,193.669 259.5,198.5C 233.471,169.474 207.471,140.474 181.5,111.5C 180.2,110.399 179.7,109.066 180,107.5C 184.694,103.635 189.194,99.6346 193.5,95.5C 195.23,94.9744 196.564,93.9744 197.5,92.5C 199.884,90.1153 202.55,88.1153 205.5,86.5C 209.258,91.4351 213.258,96.2684 217.5,101C 218.449,101.617 219.282,101.451 220,100.5C 220.667,99.1667 220.667,97.8333 220,96.5C 215.988,91.7916 212.488,86.7916 209.5,81.5C 213.146,79.1829 216.48,76.5162 219.5,73.5C 221.5,72.1667 223.167,70.5 224.5,68.5C 225.167,68.5 225.5,68.1667 225.5,67.5C 228.214,64.7846 231.214,62.4512 234.5,60.5C 236.5,59.1667 238.167,57.5 239.5,55.5C 240.167,55.1667 240.833,54.8333 241.5,54.5C 242.117,54.3893 242.617,54.056 243,53.5C 247.5,58 252,62.5 256.5,67C 259.321,67.5065 260.488,66.3398 260,63.5C 255.297,58.9645 250.797,54.2979 246.5,49.5C 253.629,43.5418 260.629,37.3751 267.5,31C 269.055,29.7107 270.721,29.044 272.5,29C 305.167,63.6667 337.833,98.3333 370.5,133C 350.961,150.043 331.294,166.877 311.5,183.5 Z"/></g>
<g><path style="opacity:1" fill="#15b0e9" d="M 146.5,33.5 C 155.354,40.089 164.354,46.4223 173.5,52.5C 168.224,57.2741 163.89,62.7741 160.5,69C 161.059,71.1875 162.393,71.8542 164.5,71C 168.365,65.0991 173.032,59.9325 178.5,55.5C 178.511,57.0174 179.177,58.1841 180.5,59C 183.5,61.1667 186.5,63.3333 189.5,65.5C 190.169,63.3691 190.835,61.3691 191.5,59.5C 192.071,66.7808 191.405,73.7808 189.5,80.5C 178.562,82.3184 167.895,84.9851 157.5,88.5C 158.372,90.4496 159.039,92.4496 159.5,94.5C 158.84,95.964 158.507,97.6307 158.5,99.5C 161.677,138.47 164.344,177.47 166.5,216.5C 163.833,218.5 161.5,220.833 159.5,223.5C 143.141,210.481 126.475,197.814 109.5,185.5C 92.1693,173.148 75.5026,160.148 59.5,146.5C 61.371,146.141 62.871,145.141 64,143.5C 88.3313,109.675 112.831,76.0083 137.5,42.5C 139.137,40.6838 140.637,38.6838 142,36.5C 143.129,34.8588 144.629,33.8588 146.5,33.5 Z"/></g>
<g><path style="opacity:1" fill="#255265" d="M 246.5,49.5 C 250.797,54.2979 255.297,58.9645 260,63.5C 260.488,66.3398 259.321,67.5065 256.5,67C 252,62.5 247.5,58 243,53.5C 242.617,54.056 242.117,54.3893 241.5,54.5C 241.106,52.2901 239.773,50.9568 237.5,50.5C 237.893,52.2838 238.559,53.9505 239.5,55.5C 238.167,57.5 236.5,59.1667 234.5,60.5C 232.963,55.1016 230.13,50.4349 226,46.5C 226.751,53.4511 226.584,60.4511 225.5,67.5C 224.833,67.5 224.5,67.8333 224.5,68.5C 223.167,70.5 221.5,72.1667 219.5,73.5C 218.5,73.5 217.5,73.5 216.5,73.5C 220.868,64.6864 221.701,55.6864 219,46.5C 216.597,43.4335 213.597,41.1002 210,39.5C 203.526,42.3004 199.693,47.1338 198.5,54C 199.739,61.5488 202.072,68.7155 205.5,75.5C 206.351,77.8816 207.684,79.8816 209.5,81.5C 212.488,86.7916 215.988,91.7916 220,96.5C 220.667,97.8333 220.667,99.1667 220,100.5C 219.282,101.451 218.449,101.617 217.5,101C 213.258,96.2684 209.258,91.4351 205.5,86.5C 204.083,83.331 202.417,80.331 200.5,77.5C 199.104,74.1542 197.604,70.8208 196,67.5C 196.238,71.1087 196.405,74.7754 196.5,78.5C 197.127,83.1408 197.46,87.8075 197.5,92.5C 196.564,93.9744 195.23,94.9744 193.5,95.5C 193.328,91.466 192.828,87.466 192,83.5C 191.764,81.8807 190.931,80.8807 189.5,80.5C 191.405,73.7808 192.071,66.7808 191.5,59.5C 192.039,54.0399 192.872,48.7065 194,43.5C 188.532,47.1459 183.366,51.1459 178.5,55.5C 173.032,59.9325 168.365,65.0991 164.5,71C 162.393,71.8542 161.059,71.1875 160.5,69C 163.89,62.7741 168.224,57.2741 173.5,52.5C 196.904,27.2793 221.237,26.2793 246.5,49.5 Z M 191.5,59.5 C 190.835,61.3691 190.169,63.3691 189.5,65.5C 186.5,63.3333 183.5,61.1667 180.5,59C 179.177,58.1841 178.511,57.0174 178.5,55.5C 183.366,51.1459 188.532,47.1459 194,43.5C 192.872,48.7065 192.039,54.0399 191.5,59.5 Z M 234.5,60.5 C 231.214,62.4512 228.214,64.7846 225.5,67.5C 226.584,60.4511 226.751,53.4511 226,46.5C 230.13,50.4349 232.963,55.1016 234.5,60.5 Z M 237.5,50.5 C 239.773,50.9568 241.106,52.2901 241.5,54.5C 240.833,54.8333 240.167,55.1667 239.5,55.5C 238.559,53.9505 237.893,52.2838 237.5,50.5 Z"/></g>
<g><path style="opacity:1" fill="#557a8b" d="M 146.5,33.5 C 144.629,33.8588 143.129,34.8588 142,36.5C 140.637,38.6838 139.137,40.6838 137.5,42.5C 137.565,42.0618 137.399,41.7284 137,41.5C 134.234,44.7768 131.067,47.4434 127.5,49.5C 132.63,43.8686 137.964,38.3686 143.5,33C 144.749,32.2599 145.749,32.4265 146.5,33.5 Z"/></g>
<g><path style="opacity:1" fill="#11475c" d="M 137.5,42.5 C 112.831,76.0083 88.3313,109.675 64,143.5C 62.871,145.141 61.371,146.141 59.5,146.5C 56.9101,139.901 54.4101,133.234 52,126.5C 51.235,124.934 51.4017,123.601 52.5,122.5C 61.1123,115.556 69.1123,107.889 76.5,99.5C 80.5,94.8333 84.8333,90.5 89.5,86.5C 98.4459,79.2224 106.779,71.2224 114.5,62.5C 118.5,57.8333 122.833,53.5 127.5,49.5C 131.067,47.4434 134.234,44.7768 137,41.5C 137.399,41.7284 137.565,42.0618 137.5,42.5 Z"/></g>
<g><path style="opacity:1" fill="#4db0db" d="M 200.5,77.5 C 199.167,77.8333 197.833,78.1667 196.5,78.5C 196.405,74.7754 196.238,71.1087 196,67.5C 197.604,70.8208 199.104,74.1542 200.5,77.5 Z"/></g>
<g><path style="opacity:1" fill="#f3cc40" d="M 216.5,73.5 C 217.5,73.5 218.5,73.5 219.5,73.5C 216.48,76.5162 213.146,79.1829 209.5,81.5C 207.684,79.8816 206.351,77.8816 205.5,75.5C 209.221,75.0889 212.888,74.4222 216.5,73.5 Z"/></g>
<g><path style="opacity:1" fill="#e8c52d" d="M 200.5,77.5 C 202.417,80.331 204.083,83.331 205.5,86.5C 202.55,88.1153 199.884,90.1153 197.5,92.5C 197.46,87.8075 197.127,83.1408 196.5,78.5C 197.833,78.1667 199.167,77.8333 200.5,77.5 Z"/></g>
<g><path style="opacity:1" fill="#5e7f8e" d="M 114.5,62.5 C 106.779,71.2224 98.4459,79.2224 89.5,86.5C 97.2208,77.7776 105.554,69.7776 114.5,62.5 Z"/></g>
<g><path style="opacity:1" fill="#f5cd27" d="M 189.5,80.5 C 190.931,80.8807 191.764,81.8807 192,83.5C 192.828,87.466 193.328,91.466 193.5,95.5C 189.194,99.6346 184.694,103.635 180,107.5C 179.7,109.066 180.2,110.399 181.5,111.5C 202.751,145.666 223.751,180 244.5,214.5C 230.867,217.658 217.2,220.658 203.5,223.5C 200.239,220.568 196.572,219.901 192.5,221.5C 191.883,221.389 191.383,221.056 191,220.5C 180.495,178.482 169.995,136.482 159.5,94.5C 159.039,92.4496 158.372,90.4496 157.5,88.5C 167.895,84.9851 178.562,82.3184 189.5,80.5 Z"/></g>
<g><path style="opacity:1" fill="#0f475a" d="M 159.5,94.5 C 169.995,136.482 180.495,178.482 191,220.5C 191.383,221.056 191.883,221.389 192.5,221.5C 191.5,222.833 190.5,224.167 189.5,225.5C 187.5,225.167 185.5,224.833 183.5,224.5C 179.841,218.037 174.175,215.371 166.5,216.5C 164.344,177.47 161.677,138.47 158.5,99.5C 158.507,97.6307 158.84,95.964 159.5,94.5 Z"/></g>
<g><path style="opacity:1" fill="#628391" d="M 76.5,99.5 C 69.1123,107.889 61.1123,115.556 52.5,122.5C 59.8877,114.111 67.8877,106.444 76.5,99.5 Z"/></g>
<g><path style="opacity:1" fill="#144658" d="M 181.5,111.5 C 207.471,140.474 233.471,169.474 259.5,198.5C 258.151,207.933 257.151,217.266 256.5,226.5C 256.5,223.833 256.5,221.167 256.5,218.5C 253.824,219.008 251.157,219.175 248.5,219C 247.267,217.333 245.933,215.833 244.5,214.5C 223.751,180 202.751,145.666 181.5,111.5 Z"/></g>
<g><path style="opacity:1" fill="#f7ce30" d="M 311.5,183.5 C 311.5,184.167 311.5,184.833 311.5,185.5C 312.971,189.718 313.971,194.051 314.5,198.5C 305.392,200.027 296.392,202.027 287.5,204.5C 295.459,197.51 303.459,190.51 311.5,183.5 Z"/></g>
<g><path style="opacity:0.978" fill="#fdfdfd" d="M 109.5,185.5 C 126.475,197.814 143.141,210.481 159.5,223.5C 155.365,236.231 155.531,248.898 160,261.5C 163.615,270.185 169.448,272.351 177.5,268C 183.444,263.044 185.111,257.211 182.5,250.5C 181.914,250.709 181.414,251.043 181,251.5C 180.707,256.39 178.874,260.557 175.5,264C 172.975,264.896 170.808,264.396 169,262.5C 167.616,255.589 167.116,248.589 167.5,241.5C 173.219,241.395 178.385,239.728 183,236.5C 184.824,232.574 184.99,228.574 183.5,224.5C 185.5,224.833 187.5,225.167 189.5,225.5C 188.079,238.473 188.246,251.473 190,264.5C 193.667,268.5 197.333,268.5 201,264.5C 202.873,253.928 203.873,243.261 204,232.5C 210.464,225.116 215.13,226.116 218,235.5C 218.438,243.713 217.938,251.88 216.5,260C 216.667,262.167 216.833,264.333 217,266.5C 219.244,268.994 221.577,268.994 224,266.5C 228.603,255.856 229.603,244.856 227,233.5C 224.681,226.848 220.014,223.848 213,224.5C 210.468,224.624 207.968,224.957 205.5,225.5C 204.287,225.253 203.62,224.586 203.5,223.5C 217.2,220.658 230.867,217.658 244.5,214.5C 245.933,215.833 247.267,217.333 248.5,219C 251.157,219.175 253.824,219.008 256.5,218.5C 256.5,221.167 256.5,223.833 256.5,226.5C 256.664,229.187 256.497,231.854 256,234.5C 244.867,228.322 236.867,230.989 232,242.5C 231.016,248.705 231.683,254.705 234,260.5C 241.267,269.346 248.934,269.679 257,261.5C 257.241,264.289 257.908,266.956 259,269.5C 262.726,271.354 265.392,270.354 267,266.5C 269.442,249.586 270.942,232.586 271.5,215.5C 272.791,215.737 273.791,215.404 274.5,214.5C 274.833,214.5 275.167,214.5 275.5,214.5C 278.977,218.82 283.31,219.653 288.5,217C 291.899,211.82 290.566,208.653 284.5,207.5C 285.167,206.167 286.167,205.167 287.5,204.5C 296.392,202.027 305.392,200.027 314.5,198.5C 313.971,194.051 312.971,189.718 311.5,185.5C 328.093,186.319 344.76,186.819 361.5,187C 368.433,189.866 375.433,192.533 382.5,195C 384.664,198.815 386.831,202.649 389,206.5C 388.868,220.333 390.535,234 394,247.5C 394.667,251.833 394.667,256.167 394,260.5C 380.932,276.969 368.599,293.969 357,311.5C 353.303,314.138 349.136,315.638 344.5,316C 335.19,317.666 325.857,317.999 316.5,317C 302.384,319.823 288.384,323.157 274.5,327C 225.833,327.667 177.167,327.667 128.5,327C 121.95,324.68 115.284,324.013 108.5,325C 105.833,323 103.167,321 100.5,319C 88.5682,314.722 77.9015,308.388 68.5,300C 56.9602,295.116 46.4602,288.616 37,280.5C 31.1192,271.679 28.9525,262.179 30.5,252C 33.6541,243.102 33.9875,234.102 31.5,225C 35.1531,216.117 36.3198,206.951 35,197.5C 39.8932,193.609 45.0598,190.109 50.5,187C 70.3376,186.832 90.0043,186.332 109.5,185.5 Z"/></g>
<g><path style="opacity:1" fill="#090808" d="M 274.5,214.5 C 273.791,215.404 272.791,215.737 271.5,215.5C 270.942,232.586 269.442,249.586 267,266.5C 265.392,270.354 262.726,271.354 259,269.5C 257.908,266.956 257.241,264.289 257,261.5C 248.934,269.679 241.267,269.346 234,260.5C 231.683,254.705 231.016,248.705 232,242.5C 236.867,230.989 244.867,228.322 256,234.5C 256.497,231.854 256.664,229.187 256.5,226.5C 257.151,217.266 258.151,207.933 259.5,198.5C 262.505,193.669 266.005,193.336 270,197.5C 271.224,202.386 271.891,207.386 272,212.5C 272.708,213.381 273.542,214.047 274.5,214.5 Z"/></g>
<g><path style="opacity:1" fill="#040404" d="M 75.5,219.5 C 76.4731,217.052 76.8064,214.385 76.5,211.5C 75.5,211.5 74.5,211.5 73.5,211.5C 67.7487,210.864 62.0821,209.697 56.5,208C 55.4238,206.274 55.2571,204.441 56,202.5C 63.8037,199.283 71.9704,197.95 80.5,198.5C 91.2876,198.606 101.954,199.773 112.5,202C 115.167,204 115.167,206 112.5,208C 106.654,210.003 100.654,211.169 94.5,211.5C 94.8782,233.628 93.3782,255.628 90,277.5C 88.5514,282.218 85.3847,283.718 80.5,282C 79.283,280.352 78.4497,278.519 78,276.5C 75.8349,257.565 75.0016,238.565 75.5,219.5 Z"/></g>
<g><path style="opacity:1" fill="#080808" d="M 310.5,204.5 C 313.85,204.335 317.183,204.502 320.5,205C 323.251,205.516 325.584,206.683 327.5,208.5C 326.91,209.799 325.91,210.632 324.5,211C 320.238,210.98 316.405,212.147 313,214.5C 312.5,220.825 312.334,227.158 312.5,233.5C 315.518,233.335 318.518,233.502 321.5,234C 322.167,234.667 322.833,235.333 323.5,236C 321.038,237.216 318.371,237.882 315.5,238C 314.069,238.465 312.903,239.299 312,240.5C 311.659,250.568 310.659,260.568 309,270.5C 308.735,272.651 307.735,274.318 306,275.5C 305.228,275.355 304.561,275.022 304,274.5C 303.333,272.5 302.667,270.5 302,268.5C 301.037,258.516 300.203,248.516 299.5,238.5C 292.714,236.249 292.881,234.582 300,233.5C 299.967,225.675 300.967,218.009 303,210.5C 304.707,207.41 307.207,205.41 310.5,204.5 Z"/></g>
<g><path style="opacity:1" fill="#0c0908" d="M 284.5,207.5 C 290.566,208.653 291.899,211.82 288.5,217C 283.31,219.653 278.977,218.82 275.5,214.5C 275.908,209.105 278.908,206.772 284.5,207.5 Z"/></g>
<g><path style="opacity:1" fill="#0a0a0a" d="M 123.5,216.5 C 129.686,215.042 133.019,217.375 133.5,223.5C 136.796,222.577 140.129,221.577 143.5,220.5C 151.682,222.203 154.849,227.203 153,235.5C 151.867,237.211 150.367,237.711 148.5,237C 148.166,233.013 146.5,229.68 143.5,227C 139.422,226.72 136.589,228.553 135,232.5C 133.864,242.858 132.531,253.191 131,263.5C 129.184,267.663 126.351,268.497 122.5,266C 121.083,263.017 120.25,259.85 120,256.5C 118.801,245.185 118.467,233.852 119,222.5C 120.332,220.34 121.832,218.34 123.5,216.5 Z"/></g>
<g><path style="opacity:1" fill="#0d0d0d" d="M 166.5,216.5 C 174.175,215.371 179.841,218.037 183.5,224.5C 184.99,228.574 184.824,232.574 183,236.5C 178.385,239.728 173.219,241.395 167.5,241.5C 167.116,248.589 167.616,255.589 169,262.5C 170.808,264.396 172.975,264.896 175.5,264C 178.874,260.557 180.707,256.39 181,251.5C 181.414,251.043 181.914,250.709 182.5,250.5C 185.111,257.211 183.444,263.044 177.5,268C 169.448,272.351 163.615,270.185 160,261.5C 155.531,248.898 155.365,236.231 159.5,223.5C 161.5,220.833 163.833,218.5 166.5,216.5 Z"/></g>
<g><path style="opacity:1" fill="#080808" d="M 332.5,216.5 C 335.272,216.22 337.772,216.887 340,218.5C 338.772,226.644 339.439,234.644 342,242.5C 346.219,246.534 350.219,246.201 354,241.5C 354.333,234.167 354.667,226.833 355,219.5C 359.406,215.577 363.739,215.577 368,219.5C 368.667,229.5 368.667,239.5 368,249.5C 366.859,257.404 364.192,264.738 360,271.5C 352.258,277.966 343.758,279.133 334.5,275C 329.911,270.034 328.411,264.2 330,257.5C 331.356,256.62 332.856,256.286 334.5,256.5C 331.53,266.683 335.196,271.183 345.5,270C 347.286,269.215 348.786,268.049 350,266.5C 352.345,260.357 353.011,254.024 352,247.5C 339.635,253.149 331.969,249.149 329,235.5C 328.333,230.167 328.333,224.833 329,219.5C 330.145,218.364 331.312,217.364 332.5,216.5 Z"/></g>
<g><path style="opacity:1" fill="#727272" d="M 73.5,211.5 C 74.5,211.5 75.5,211.5 76.5,211.5C 76.8064,214.385 76.4731,217.052 75.5,219.5C 75.8685,216.467 75.2018,213.8 73.5,211.5 Z"/></g>
<g><path style="opacity:1" fill="#090909" d="M 203.5,223.5 C 203.62,224.586 204.287,225.253 205.5,225.5C 207.968,224.957 210.468,224.624 213,224.5C 220.014,223.848 224.681,226.848 227,233.5C 229.603,244.856 228.603,255.856 224,266.5C 221.577,268.994 219.244,268.994 217,266.5C 216.833,264.333 216.667,262.167 216.5,260C 217.938,251.88 218.438,243.713 218,235.5C 215.13,226.116 210.464,225.116 204,232.5C 203.873,243.261 202.873,253.928 201,264.5C 197.333,268.5 193.667,268.5 190,264.5C 188.246,251.473 188.079,238.473 189.5,225.5C 190.5,224.167 191.5,222.833 192.5,221.5C 196.572,219.901 200.239,220.568 203.5,223.5 Z"/></g>
<g><path style="opacity:1" fill="#f4f4f4" d="M 171.5,221.5 C 177.928,222.331 180.428,225.998 179,232.5C 175.959,234.929 172.459,235.929 168.5,235.5C 167.909,230.436 168.909,225.769 171.5,221.5 Z"/></g>
<g><path style="opacity:1" fill="#0c0c0c" d="M 279.5,224.5 C 287.214,223.547 290.547,226.881 289.5,234.5C 289.042,243.872 288.209,253.206 287,262.5C 285.428,267.691 282.428,268.691 278,265.5C 276.541,252.865 276.208,240.198 277,227.5C 277.698,226.309 278.531,225.309 279.5,224.5 Z"/></g>
<g><path style="opacity:1" fill="#f6f6f6" d="M 246.5,236.5 C 250.803,235.796 254.303,237.13 257,240.5C 257.667,245.5 257.667,250.5 257,255.5C 252.675,263.007 248.008,263.34 243,256.5C 240.187,249.041 241.353,242.375 246.5,236.5 Z"/></g>
<g><path style="opacity:1" fill="#535353" d="M 185.5,288.5 C 187.337,288.639 187.67,289.306 186.5,290.5C 185.702,290.043 185.369,289.376 185.5,288.5 Z"/></g>
<g><path style="opacity:1" fill="#2b2b2b" d="M 158.5,291.5 C 159.496,291.414 160.329,291.748 161,292.5C 162.333,294.5 163.667,296.5 165,298.5C 165.186,296.1 165.686,293.766 166.5,291.5C 167.833,294.833 167.833,298.167 166.5,301.5C 164.142,299.976 162.309,297.976 161,295.5C 160.808,297.577 160.308,299.577 159.5,301.5C 158.513,298.232 158.18,294.898 158.5,291.5 Z"/></g>
<g><path style="opacity:1" fill="#1b1b1b" d="M 173.5,291.5 C 175.388,293.988 176.055,296.988 175.5,300.5C 176.873,300.343 178.207,300.51 179.5,301C 177.527,301.495 175.527,301.662 173.5,301.5C 173.5,298.167 173.5,294.833 173.5,291.5 Z"/></g>
<g><path style="opacity:1" fill="#1d1d1d" d="M 185.5,291.5 C 186.777,292.694 187.444,294.36 187.5,296.5C 187.167,298.167 186.833,299.833 186.5,301.5C 185.513,298.232 185.18,294.898 185.5,291.5 Z"/></g>
<g><path style="opacity:1" fill="#222222" d="M 210.5,291.5 C 212.857,291.337 215.19,291.503 217.5,292C 215.527,292.495 213.527,292.662 211.5,292.5C 211.5,293.5 211.5,294.5 211.5,295.5C 218.049,295.907 218.049,296.907 211.5,298.5C 219.299,300.37 218.965,301.37 210.5,301.5C 210.5,298.167 210.5,294.833 210.5,291.5 Z"/></g>
<g><path style="opacity:1" fill="#2d2d2d" d="M 276.5,291.5 C 279.119,291.232 281.619,291.565 284,292.5C 285.509,297.493 283.675,299.493 278.5,298.5C 278.719,299.675 278.386,300.675 277.5,301.5C 276.513,298.232 276.18,294.898 276.5,291.5 Z"/></g>
<g><path style="opacity:1" fill="#fefffe" d="M 278.5,293.5 C 279.833,293.5 281.167,293.5 282.5,293.5C 282.5,294.5 282.5,295.5 282.5,296.5C 281.167,296.5 279.833,296.5 278.5,296.5C 278.5,295.5 278.5,294.5 278.5,293.5 Z"/></g>
<g><path style="opacity:1" fill="#1f1f1f" d="M 194.5,291.5 C 197.298,292.706 199.465,294.706 201,297.5C 201.192,295.423 201.692,293.423 202.5,291.5C 203.833,294.833 203.833,298.167 202.5,301.5C 200.443,299.731 198.61,297.731 197,295.5C 196.808,297.577 196.308,299.577 195.5,301.5C 194.513,298.232 194.18,294.898 194.5,291.5 Z"/></g>
<g><path style="opacity:1" fill="#272727" d="M 232.5,291.5 C 239.576,291.857 239.909,292.857 233.5,294.5C 234.736,295.357 236.069,296.023 237.5,296.5C 238.747,298.006 238.747,299.506 237.5,301C 235.559,301.743 233.726,301.576 232,300.5C 231.333,299.833 231.333,299.167 232,298.5C 233.494,299.747 234.994,299.747 236.5,298.5C 232.432,297.483 231.099,295.15 232.5,291.5 Z"/></g>
<g><path style="opacity:1" fill="#1b1b1b" d="M 245.5,291.5 C 246.434,292.568 246.768,293.901 246.5,295.5C 248.5,295.5 250.5,295.5 252.5,295.5C 253.833,296.167 253.833,296.833 252.5,297.5C 250.5,297.5 248.5,297.5 246.5,297.5C 246.657,298.873 246.49,300.207 246,301.5C 245.502,298.183 245.335,294.85 245.5,291.5 Z"/></g>
<g><path style="opacity:1" fill="#1e1e1e" d="M 144.5,291.5 C 151.628,291.706 153.294,294.873 149.5,301C 145.168,302.336 142.501,300.836 141.5,296.5C 141.757,294.308 142.757,292.641 144.5,291.5 Z"/></g>
<g><path style="opacity:1" fill="#f7f7f7" d="M 144.5,293.5 C 149.123,292.408 150.956,294.075 150,298.5C 144.42,300.752 142.587,299.085 144.5,293.5 Z"/></g>
<g><path style="opacity:1" fill="#252525" d="M 262.5,291.5 C 269.842,291.207 271.842,294.207 268.5,300.5C 260.415,301.86 258.415,298.86 262.5,291.5 Z"/></g>
<g><path style="opacity:1" fill="#f2f2f2" d="M 262.5,293.5 C 267.123,292.408 268.956,294.075 268,298.5C 262.42,300.752 260.587,299.085 262.5,293.5 Z"/></g>
</svg>
